<svg width="18" height="18" viewBox="0 0 18 18" fill="none" xmlns="http://www.w3.org/2000/svg">
<path d="M7.61539 0C6.46875 0 5.53846 0.930288 5.53846 2.07692V7.61539H3.28846C2.3122 7.61539 2.10667 7.77224 2.94231 8.61058L7.50721 13.1755C9.02975 14.698 9.01082 14.7034 10.5361 13.1755L15.0793 8.61058C15.915 7.77224 15.6364 7.61539 14.7548 7.61539H12.4615V2.07692C12.4615 0.930288 11.5312 0 10.3846 0H7.61539ZM0 13.1538V15.9231C0 17.0697 0.930288 18 2.07692 18H15.9231C17.0697 18 18 17.0697 18 15.9231V13.1538H16.6154V15.9231C16.6154 16.3044 16.3044 16.6154 15.9231 16.6154H2.07692C1.69561 16.6154 1.38462 16.3044 1.38462 15.9231V13.1538H0Z" fill="#CB9200"/>
</svg>
