<svg width="12" height="12" viewBox="0 0 12 12" fill="none" xmlns="http://www.w3.org/2000/svg">
<path d="M5.07692 0C4.3125 0 3.69231 0.620192 3.69231 1.38462V5.07692H2.19231C1.54147 5.07692 1.40445 5.18149 1.96154 5.74038L5.00481 8.78365C6.01983 9.79868 6.00721 9.80228 7.02404 8.78365L10.0529 5.74038C10.61 5.18149 10.4243 5.07692 9.83654 5.07692H8.30769V1.38462C8.30769 0.620192 7.6875 0 6.92308 0H5.07692ZM0 8.76923V10.6154C0 11.3798 0.620192 12 1.38462 12H10.6154C11.3798 12 12 11.3798 12 10.6154V8.76923H11.0769V10.6154C11.0769 10.8696 10.8696 11.0769 10.6154 11.0769H1.38462C1.13041 11.0769 0.923077 10.8696 0.923077 10.6154V8.76923H0Z" fill="#CB9200"/>
</svg>
