<svg width="15" height="15" viewBox="0 0 15 15" fill="none" xmlns="http://www.w3.org/2000/svg">
<path d="M7.49998 0.600098C3.69276 0.600098 0.599976 3.69289 0.599976 7.5001C0.599976 11.3073 3.69276 14.4001 7.49998 14.4001C11.3072 14.4001 14.4 11.3073 14.4 7.5001C14.4 3.69289 11.3072 0.600098 7.49998 0.600098ZM7.49998 1.2001C10.9829 1.2001 13.8 4.01715 13.8 7.5001C13.8 10.983 10.9829 13.8001 7.49998 13.8001C4.01703 13.8001 1.19998 10.983 1.19998 7.5001C1.19998 4.01715 4.01703 1.2001 7.49998 1.2001ZM7.49998 3.3001C7.26128 3.3001 7.03236 3.39492 6.86358 3.5637C6.6948 3.73248 6.59998 3.9614 6.59998 4.2001C6.59998 4.43879 6.6948 4.66771 6.86358 4.83649C7.03236 5.00528 7.26128 5.1001 7.49998 5.1001C7.73867 5.1001 7.96759 5.00528 8.13637 4.83649C8.30515 4.66771 8.39998 4.43879 8.39998 4.2001C8.39998 3.9614 8.30515 3.73248 8.13637 3.5637C7.96759 3.39492 7.73867 3.3001 7.49998 3.3001ZM6.29998 6.3001V6.9001H6.59998H6.89998V10.8001H6.59998H6.29998V11.4001H6.59998H6.89998H8.09998H8.39998H8.69998V10.8001H8.39998H8.09998V6.3001H7.79998H6.59998H6.29998Z" fill="#5B5B5B"/>
</svg>
